<svg version="1.1" id="Слой_1" xmlns="http://www.w3.org/2000/svg" xmlns:xlink="http://www.w3.org/1999/xlink" x="0px" y="0px"
	 viewBox="50 210 400 170" style="enable-background:new 0 0 595.3 841.9;" xml:space="preserve">
<style type="text/css">
	.st0{fill:#201600;}
	.st1{display:none;}
	.st2{display:inline;fill:#01A0E2;}
	.st3{fill:#C2ED00;}
	.st4{fill:#01A0E2;}
</style>
<g>
	<path class="st0" d="M67.9,241.1c0,1.1-0.5,2.1-1.4,2.8s-2.1,1.1-3.5,1.1c-0.7,0-1.4-0.1-2-0.3c-0.6-0.2-1.1-0.5-1.5-0.8
		c-0.4-0.4-0.8-0.8-1-1.2c-0.2-0.5-0.4-1-0.4-1.6s0.1-1.1,0.4-1.6c0.2-0.5,0.6-0.9,1-1.2c0.4-0.4,1-0.6,1.6-0.8
		c0.6-0.2,1.3-0.3,2-0.3s1.4,0.1,2,0.3c0.6,0.2,1.1,0.5,1.5,0.8s0.8,0.8,1,1.2C67.7,240.1,67.9,240.6,67.9,241.1z M58.9,256.9
		c0-0.7,0.1-1.3,0.4-1.8c0.2-0.5,0.5-0.9,0.9-1.3c0.4-0.3,0.8-0.6,1.3-0.8c0.5-0.2,1-0.3,1.5-0.3c0.5,0,1,0.1,1.5,0.3
		s0.9,0.4,1.3,0.8c0.4,0.3,0.7,0.8,0.9,1.3c0.2,0.5,0.4,1.1,0.4,1.8v27c0,0.7-0.1,1.3-0.4,1.8c-0.2,0.5-0.6,0.9-0.9,1.3
		c-0.4,0.3-0.8,0.6-1.3,0.8c-0.5,0.2-1,0.3-1.5,0.3c-0.5,0-1-0.1-1.5-0.2c-0.5-0.2-0.9-0.4-1.3-0.8c-0.4-0.3-0.7-0.8-0.9-1.3
		c-0.2-0.5-0.4-1.1-0.4-1.8V256.9z"/>
	<path class="st0" d="M76.8,256.7c0-0.6,0.1-1.2,0.4-1.7c0.2-0.5,0.5-0.9,0.9-1.2s0.8-0.6,1.3-0.7c0.5-0.2,1-0.2,1.5-0.2
		c0.5,0,1,0.1,1.5,0.2c0.5,0.2,0.9,0.4,1.3,0.7s0.7,0.7,0.9,1.2c0.2,0.5,0.4,1,0.4,1.6v2.7c0.4-0.9,1-1.8,1.8-2.7s1.7-1.7,2.8-2.3
		c1.1-0.6,2.2-1.1,3.4-1.4c1.2-0.3,2.5-0.5,3.7-0.5c1.6,0,3.2,0.3,4.7,0.8c1.5,0.5,2.8,1.3,3.9,2.4c1.1,1.1,2,2.5,2.7,4.2
		c0.7,1.7,1,3.7,1,6.1V284c0,0.7-0.1,1.2-0.4,1.7c-0.2,0.5-0.5,0.9-0.9,1.2c-0.4,0.3-0.8,0.6-1.3,0.8c-0.5,0.2-1,0.2-1.5,0.2
		c-0.5,0-1-0.1-1.5-0.2c-0.5-0.2-0.9-0.4-1.3-0.8c-0.4-0.3-0.7-0.8-0.9-1.2c-0.2-0.5-0.4-1.1-0.4-1.7v-18.3c0-1.3-0.2-2.5-0.6-3.5
		c-0.4-1-0.9-1.8-1.5-2.5c-0.6-0.7-1.4-1.1-2.2-1.5s-1.7-0.5-2.7-0.5c-1.2,0-2.4,0.2-3.5,0.6c-1.1,0.4-2,1-2.8,1.8s-1.4,1.7-1.9,2.8
		c-0.5,1.1-0.7,2.4-0.7,4V284c0,0.7-0.1,1.2-0.4,1.7c-0.2,0.5-0.5,0.9-0.9,1.2c-0.4,0.3-0.8,0.6-1.3,0.8c-0.5,0.2-1,0.2-1.5,0.2
		c-0.5,0-1-0.1-1.5-0.2c-0.5-0.2-0.9-0.4-1.3-0.8c-0.4-0.3-0.7-0.8-0.9-1.2c-0.2-0.5-0.4-1.1-0.4-1.7V256.7z"/>
	<path class="st0" d="M118.8,256.7c0-0.6,0.1-1.2,0.4-1.7c0.2-0.5,0.5-0.9,0.9-1.2s0.8-0.6,1.3-0.7c0.5-0.2,1-0.2,1.5-0.2
		c0.5,0,1,0.1,1.5,0.2c0.5,0.2,0.9,0.4,1.3,0.7s0.7,0.7,0.9,1.2c0.2,0.5,0.4,1,0.4,1.6v2.7c0.4-0.9,1-1.8,1.8-2.7s1.7-1.7,2.8-2.3
		c1.1-0.6,2.2-1.1,3.4-1.4c1.2-0.3,2.5-0.5,3.7-0.5c1.6,0,3.2,0.3,4.7,0.8c1.5,0.5,2.8,1.3,3.9,2.4c1.1,1.1,2,2.5,2.7,4.2
		c0.7,1.7,1,3.7,1,6.1V284c0,0.7-0.1,1.2-0.4,1.7c-0.2,0.5-0.5,0.9-0.9,1.2c-0.4,0.3-0.8,0.6-1.3,0.8c-0.5,0.2-1,0.2-1.5,0.2
		c-0.5,0-1-0.1-1.5-0.2c-0.5-0.2-0.9-0.4-1.3-0.8c-0.4-0.3-0.7-0.8-0.9-1.2c-0.2-0.5-0.4-1.1-0.4-1.7v-18.3c0-1.3-0.2-2.5-0.6-3.5
		c-0.4-1-0.9-1.8-1.5-2.5c-0.6-0.7-1.4-1.1-2.2-1.5s-1.7-0.5-2.7-0.5c-1.2,0-2.4,0.2-3.5,0.6c-1.1,0.4-2,1-2.8,1.8s-1.4,1.7-1.9,2.8
		c-0.5,1.1-0.7,2.4-0.7,4V284c0,0.7-0.1,1.2-0.4,1.7c-0.2,0.5-0.5,0.9-0.9,1.2c-0.4,0.3-0.8,0.6-1.3,0.8c-0.5,0.2-1,0.2-1.5,0.2
		c-0.5,0-1-0.1-1.5-0.2c-0.5-0.2-0.9-0.4-1.3-0.8c-0.4-0.3-0.7-0.8-0.9-1.2c-0.2-0.5-0.4-1.1-0.4-1.7V256.7z"/>
	<path class="st0" d="M158.8,270.5c0-2.2,0.4-4.4,1.1-6.6c0.8-2.2,1.9-4.2,3.4-5.9c1.5-1.7,3.4-3.1,5.7-4.1c2.3-1,5-1.5,8.1-1.5
		c3.1,0,5.8,0.5,8.1,1.5c2.3,1,4.2,2.4,5.8,4.1c1.5,1.7,2.7,3.7,3.4,5.9c0.8,2.2,1.1,4.4,1.1,6.6c0,2.1-0.4,4.3-1.1,6.5
		c-0.8,2.2-1.9,4.2-3.4,5.9c-1.5,1.7-3.5,3.1-5.8,4.1c-2.3,1-5,1.5-8.1,1.5c-3.1,0-5.8-0.5-8.1-1.5c-2.3-1-4.2-2.4-5.7-4.1
		c-1.5-1.7-2.7-3.7-3.4-5.9C159.1,274.8,158.8,272.6,158.8,270.5z M167.4,270.5c0,1.4,0.2,2.9,0.5,4.4c0.4,1.6,0.9,2.9,1.7,4.1
		c0.8,1.2,1.8,2.2,3,2.9c1.2,0.7,2.7,1.1,4.4,1.1c1.7,0,3.2-0.4,4.4-1.1c1.2-0.7,2.2-1.7,3-2.9c0.8-1.2,1.4-2.6,1.7-4.1
		c0.4-1.6,0.5-3,0.5-4.4c0-1.4-0.2-2.9-0.5-4.4c-0.4-1.6-0.9-2.9-1.7-4.2c-0.8-1.2-1.8-2.2-3-2.9c-1.2-0.7-2.7-1.1-4.4-1.1
		c-1.7,0-3.2,0.4-4.4,1.1c-1.2,0.7-2.2,1.7-3,2.9c-0.8,1.2-1.4,2.6-1.7,4.2C167.6,267.6,167.4,269.1,167.4,270.5z"/>
	<path class="st0" d="M223.3,282.1c-0.4,1-0.8,1.9-1.3,2.7s-0.9,1.3-1.5,1.8c-0.6,0.5-1.2,0.8-1.9,1.1c-0.7,0.2-1.5,0.4-2.4,0.4
		c-0.9,0-1.7-0.1-2.4-0.4c-0.7-0.2-1.3-0.6-1.8-1.1c-0.6-0.5-1-1.1-1.5-1.8c-0.4-0.7-0.9-1.6-1.3-2.7l-9.8-24.4
		c-0.2-0.4-0.2-0.8-0.2-1.3c0-0.5,0.1-1,0.4-1.5c0.2-0.4,0.5-0.8,0.9-1.1s0.8-0.6,1.3-0.7c0.5-0.2,1-0.2,1.5-0.2
		c0.8,0,1.5,0.2,2.1,0.7c0.6,0.4,1.1,1.1,1.5,2.1l9.3,24.3l9-24.3c0.4-1,0.9-1.7,1.5-2.1c0.7-0.4,1.4-0.7,2.2-0.7
		c0.5,0,1,0.1,1.5,0.2c0.5,0.2,0.9,0.4,1.3,0.7s0.7,0.7,0.9,1.1c0.2,0.4,0.4,0.9,0.4,1.5c0,0.2,0,0.4-0.1,0.7c0,0.2-0.1,0.5-0.2,0.7
		L223.3,282.1z"/>
	<path class="st0" d="M259.5,264.6c0-1.2-0.2-2.2-0.5-3c-0.3-0.8-0.8-1.4-1.4-1.9s-1.3-0.8-2.2-1.1s-1.8-0.3-2.8-0.3
		c-1.2,0-2.2,0.1-3.2,0.2c-1,0.1-1.9,0.3-2.7,0.5c-0.8,0.2-1.6,0.5-2.3,0.8c-0.7,0.3-1.4,0.6-2.1,0.9c-0.4,0.1-0.7,0.2-1.1,0.2
		c-0.3,0-0.6-0.1-0.9-0.2c-0.3-0.1-0.6-0.3-0.8-0.5c-0.2-0.2-0.4-0.5-0.5-0.8c-0.1-0.3-0.2-0.6-0.2-0.9c0-0.3,0-0.5,0.1-0.7
		c0.1-0.2,0.2-0.4,0.4-0.7c1.1-1.7,2.9-2.9,5.2-3.7c2.4-0.8,5.2-1.1,8.6-1.1c2,0,3.9,0.2,5.7,0.7c1.7,0.5,3.3,1.2,4.5,2.2
		s2.3,2.3,3,4c0.7,1.6,1.1,3.6,1.1,5.9v19.2c0,0.6-0.1,1.1-0.4,1.6c-0.2,0.4-0.5,0.8-0.9,1.1c-0.4,0.3-0.8,0.5-1.2,0.7
		c-0.5,0.2-0.9,0.2-1.4,0.2c-0.4,0-0.9-0.1-1.3-0.2s-0.8-0.4-1.2-0.6s-0.6-0.6-0.8-1.1s-0.3-0.9-0.4-1.5V282c-0.5,0.8-1.1,1.7-2,2.5
		c-0.8,0.9-1.7,1.6-2.8,2.1c-1,0.6-2.2,1-3.3,1.3s-2.4,0.4-3.6,0.4c-1.7,0-3.3-0.2-4.7-0.7s-2.7-1.1-3.8-2c-1.1-0.9-1.9-2-2.5-3.3
		c-0.6-1.3-0.9-2.7-0.9-4c0-2.2,0.5-4,1.4-5.5s2.2-2.7,4-3.7s3.8-1.6,6.2-2.1s5.2-0.6,8.2-0.6c0.5,0,1,0,1.7,0c0.7,0,1.3,0,1.8,0.1
		V264.6z M259.5,271.1c-0.2,0-0.4,0-0.7,0c-0.3,0-0.6,0-0.8,0s-0.6,0-0.9,0s-0.6,0-0.8,0c-1.5,0-3,0.1-4.4,0.2c-1.5,0.2-2.8,0.5-4,1
		c-1.2,0.5-2.1,1.2-2.9,2s-1.1,2-1.1,3.4c0,0.7,0.2,1.4,0.5,2.2c0.4,0.8,0.8,1.4,1.4,1.9s1.3,0.9,2.1,1.1s1.7,0.4,2.6,0.4
		c1.2,0,2.4-0.2,3.5-0.7s2-1,2.8-1.9c0.8-0.8,1.4-1.8,1.9-2.9c0.5-1.1,0.7-2.4,0.8-4V271.1z"/>
	<path class="st0" d="M279.9,252.8l0.7-9.5c0-0.5,0.2-1,0.4-1.4c0.2-0.4,0.6-0.8,0.9-1s0.8-0.5,1.2-0.6s0.9-0.2,1.3-0.2
		c0.8,0,1.6,0.3,2.2,0.8c0.7,0.5,1,1.3,1,2.4v9.5h5.4c1,0,1.7,0.3,2.2,0.9s0.7,1.2,0.7,2s-0.2,1.3-0.7,1.9c-0.5,0.6-1.2,0.9-2.2,0.9
		h-5.4v14.6c0,1.7,0,3.1,0.1,4.2c0.1,1.1,0.2,2.1,0.5,2.8c0.2,0.7,0.6,1.2,1.2,1.5s1.3,0.5,2.2,0.5c0.2,0,0.5,0,0.8,0
		c0.3,0,0.6-0.1,0.8-0.1s0.5-0.1,0.8-0.1c0.2,0,0.4,0,0.6,0c0.9,0,1.6,0.3,2.1,0.9c0.5,0.6,0.7,1.2,0.7,2c0,0.8-0.2,1.4-0.7,1.8
		c-0.5,0.5-1.1,0.8-1.8,1.1s-1.6,0.5-2.5,0.6s-1.8,0.2-2.8,0.2c-1.6,0-3.1-0.2-4.4-0.6s-2.3-1.1-3.2-2.1c-0.9-1-1.5-2.3-2-3.8
		c-0.5-1.6-0.7-3.6-0.7-5.9v-17.5H276c-1,0-1.7-0.3-2.2-0.9c-0.5-0.6-0.7-1.2-0.7-1.9s0.2-1.4,0.7-2s1.2-0.9,2.2-0.9H279.9z"/>
	<path class="st0" d="M311.9,241.1c0,1.1-0.5,2.1-1.4,2.8s-2.1,1.1-3.5,1.1c-0.7,0-1.4-0.1-2-0.3c-0.6-0.2-1.1-0.5-1.5-0.8
		s-0.8-0.8-1-1.2c-0.2-0.5-0.4-1-0.4-1.6s0.1-1.1,0.4-1.6c0.2-0.5,0.6-0.9,1-1.2s1-0.6,1.6-0.8c0.6-0.2,1.3-0.3,2-0.3s1.4,0.1,2,0.3
		c0.6,0.2,1.1,0.5,1.5,0.8s0.8,0.8,1,1.2C311.8,240.1,311.9,240.6,311.9,241.1z M302.9,256.9c0-0.7,0.1-1.3,0.4-1.8
		c0.2-0.5,0.5-0.9,0.9-1.3c0.4-0.3,0.8-0.6,1.3-0.8s1-0.3,1.5-0.3s1,0.1,1.5,0.3s0.9,0.4,1.3,0.8c0.4,0.3,0.7,0.8,0.9,1.3
		c0.2,0.5,0.4,1.1,0.4,1.8v27c0,0.7-0.1,1.3-0.4,1.8c-0.2,0.5-0.6,0.9-0.9,1.3c-0.4,0.3-0.8,0.6-1.3,0.8s-1,0.3-1.5,0.3
		s-1-0.1-1.5-0.2c-0.5-0.2-0.9-0.4-1.3-0.8c-0.4-0.3-0.7-0.8-0.9-1.3c-0.2-0.5-0.4-1.1-0.4-1.8V256.9z"/>
	<path class="st0" d="M318.8,270.5c0-2.2,0.4-4.4,1.1-6.6c0.8-2.2,1.9-4.2,3.4-5.9c1.5-1.7,3.4-3.1,5.7-4.1c2.3-1,5-1.5,8.1-1.5
		s5.8,0.5,8.1,1.5c2.3,1,4.2,2.4,5.8,4.1c1.5,1.7,2.7,3.7,3.4,5.9c0.8,2.2,1.1,4.4,1.1,6.6c0,2.1-0.4,4.3-1.1,6.5s-1.9,4.2-3.4,5.9
		c-1.5,1.7-3.5,3.1-5.8,4.1c-2.3,1-5,1.5-8.1,1.5s-5.8-0.5-8.1-1.5c-2.3-1-4.2-2.4-5.7-4.1c-1.5-1.7-2.7-3.7-3.4-5.9
		S318.8,272.6,318.8,270.5z M327.5,270.5c0,1.4,0.2,2.9,0.5,4.4c0.4,1.6,0.9,2.9,1.7,4.1c0.8,1.2,1.8,2.2,3,2.9
		c1.2,0.7,2.7,1.1,4.4,1.1s3.2-0.4,4.4-1.1c1.2-0.7,2.2-1.7,3-2.9c0.8-1.2,1.4-2.6,1.7-4.1c0.4-1.6,0.5-3,0.5-4.4
		c0-1.4-0.2-2.9-0.5-4.4c-0.4-1.6-0.9-2.9-1.7-4.2c-0.8-1.2-1.8-2.2-3-2.9c-1.2-0.7-2.7-1.1-4.4-1.1s-3.2,0.4-4.4,1.1
		c-1.2,0.7-2.2,1.7-3,2.9c-0.8,1.2-1.4,2.6-1.7,4.2C327.7,267.6,327.5,269.1,327.5,270.5z"/>
	<path class="st0" d="M363.3,256.7c0-0.6,0.1-1.2,0.4-1.7s0.5-0.9,0.9-1.2s0.8-0.6,1.3-0.7c0.5-0.2,1-0.2,1.5-0.2s1,0.1,1.5,0.2
		c0.5,0.2,0.9,0.4,1.3,0.7s0.7,0.7,0.9,1.2s0.4,1,0.4,1.6v2.7c0.4-0.9,1-1.8,1.8-2.7s1.7-1.7,2.8-2.3c1.1-0.6,2.2-1.1,3.4-1.4
		c1.2-0.3,2.5-0.5,3.7-0.5c1.6,0,3.2,0.3,4.7,0.8c1.5,0.5,2.8,1.3,3.9,2.4s2,2.5,2.7,4.2c0.7,1.7,1,3.7,1,6.1V284
		c0,0.7-0.1,1.2-0.4,1.7s-0.5,0.9-0.9,1.2c-0.4,0.3-0.8,0.6-1.3,0.8c-0.5,0.2-1,0.2-1.5,0.2s-1-0.1-1.5-0.2
		c-0.5-0.2-0.9-0.4-1.3-0.8c-0.4-0.3-0.7-0.8-0.9-1.2s-0.4-1.1-0.4-1.7v-18.3c0-1.3-0.2-2.5-0.6-3.5s-0.9-1.8-1.5-2.5
		c-0.6-0.7-1.4-1.1-2.2-1.5s-1.7-0.5-2.7-0.5c-1.2,0-2.4,0.2-3.5,0.6c-1.1,0.4-2,1-2.8,1.8s-1.4,1.7-1.9,2.8s-0.7,2.4-0.7,4V284
		c0,0.7-0.1,1.2-0.4,1.7s-0.5,0.9-0.9,1.2c-0.4,0.3-0.8,0.6-1.3,0.8c-0.5,0.2-1,0.2-1.5,0.2s-1-0.1-1.5-0.2
		c-0.5-0.2-0.9-0.4-1.3-0.8c-0.4-0.3-0.7-0.8-0.9-1.2s-0.4-1.1-0.4-1.7V256.7z"/>
</g>
<g class="st1">
	<path class="st2" d="M287.9,297.5h6.5l7.6,28.4c0.3,1.2,0.7,2.5,1,3.7c0.3,1.2,0.6,2.4,0.9,3.6s0.5,2.3,0.7,3.3
		c0.2,1,0.4,2,0.5,2.8c0.1-0.8,0.2-1.8,0.3-2.8s0.3-2,0.5-3.1s0.4-2.2,0.6-3.4c0.2-1.1,0.4-2.3,0.7-3.3l6.6-29.3h6.6L308.2,346H302
		l-8.4-31.1c-0.3-1.1-0.6-2.3-0.9-3.5c-0.3-1.2-0.6-2.3-0.8-3.4c-0.3-1.2-0.5-2.4-0.8-3.6c-0.2,1.1-0.5,2.3-0.7,3.5
		c-0.2,1-0.5,2.2-0.7,3.4c-0.3,1.2-0.6,2.5-0.9,3.7l-8,30.9h-6.2l-12.8-48.5h6.5l7.4,29.5c0.3,1,0.5,2.1,0.7,3.2
		c0.2,1.1,0.4,2.2,0.6,3.3c0.2,1.1,0.4,2.1,0.5,3.1c0.2,1,0.3,1.9,0.4,2.8c0.1-0.8,0.2-1.8,0.4-2.9c0.2-1.1,0.4-2.2,0.6-3.4
		c0.2-1.2,0.5-2.4,0.7-3.6c0.3-1.2,0.5-2.4,0.8-3.5L287.9,297.5z"/>
	<path class="st2" d="M352.9,346h-25.2v-48.5h25.2v5.4h-19v15h17.8v5.4h-17.8v17.3h19V346z"/>
	<path class="st2" d="M363.6,297.5h13.2c2.8,0,5.3,0.2,7.5,0.6s4,1.1,5.4,2.1s2.5,2.2,3.3,3.8s1.1,3.5,1.1,5.8
		c0,1.4-0.2,2.7-0.6,3.9s-1.1,2.2-1.9,3.2c-0.8,0.9-1.8,1.7-3,2.3c-1.2,0.6-2.6,1-4.1,1.2v0.3c1.5,0.3,3,0.6,4.3,1.1
		s2.5,1.2,3.5,2.1c1,0.9,1.8,2,2.4,3.3s0.9,2.9,0.9,4.8c0,2.2-0.4,4.2-1.1,5.9c-0.7,1.7-1.8,3.2-3.1,4.4c-1.4,1.2-3,2.1-5,2.8
		c-1.9,0.6-4.2,1-6.6,1h-16.1V297.5z M369.8,318h8.1c1.9,0,3.4-0.2,4.7-0.5s2.3-0.8,3.1-1.5c0.8-0.7,1.3-1.5,1.7-2.5
		c0.3-1,0.5-2.1,0.5-3.4c0-2.7-0.9-4.6-2.6-5.7c-1.7-1.2-4.4-1.7-8.1-1.7h-7.4V318z M369.8,323.2v17.5h8.8c1.9,0,3.6-0.2,4.9-0.7
		c1.3-0.4,2.4-1.1,3.2-1.9s1.4-1.8,1.7-2.9c0.4-1.1,0.5-2.4,0.5-3.7c0-1.2-0.2-2.4-0.5-3.4c-0.4-1-1-1.9-1.8-2.7
		c-0.8-0.7-1.9-1.3-3.3-1.7c-1.4-0.4-3.1-0.6-5.1-0.6H369.8z"/>
</g>
<path class="st3" d="M430.5,375.9H417V216h30.3v143.1C447.3,368.3,439.8,375.9,430.5,375.9z"/>
<g>
	<path class="st4" d="M141.9,337.4c2.8,1.8,7,3.2,11.4,3.2c6.5,0,10.3-3.4,10.3-8.4c0-4.6-2.6-7.2-9.3-9.8c-8-2.8-13-7-13-13.9
		c0-7.7,6.4-13.4,15.9-13.4c5,0,8.7,1.2,10.9,2.4l-1.8,5.2c-1.6-0.9-4.9-2.3-9.3-2.3c-6.7,0-9.3,4-9.3,7.4c0,4.6,3,6.9,9.8,9.5
		c8.3,3.2,12.6,7.2,12.6,14.5c0,7.6-5.6,14.2-17.2,14.2c-4.7,0-9.9-1.4-12.6-3.1L141.9,337.4z"/>
	<path class="st4" d="M213.2,343.5c-2.3,1.2-7,2.3-13,2.3c-13.9,0-24.3-8.8-24.3-24.9c0-15.4,10.4-25.9,25.7-25.9
		c6.1,0,10,1.3,11.7,2.2l-1.5,5.2c-2.4-1.2-5.8-2-9.9-2c-11.5,0-19.2,7.4-19.2,20.3c0,12,6.9,19.8,18.9,19.8c3.9,0,7.8-0.8,10.4-2
		L213.2,343.5z"/>
	<path class="st4" d="M227.5,295.9v20.6h23.8v-20.6h6.4v49.2h-6.4v-23.1h-23.8v23.1h-6.4v-49.2H227.5z"/>
	<path class="st4" d="M310.8,320c0,16.9-10.3,25.9-22.9,25.9c-13,0-22.1-10.1-22.1-25c0-15.6,9.7-25.9,22.9-25.9
		C302.2,295.1,310.8,305.4,310.8,320z M272.7,320.8c0,10.5,5.7,19.9,15.7,19.9c10.1,0,15.8-9.3,15.8-20.4c0-9.8-5.1-20-15.7-20
		C277.9,300.3,272.7,310,272.7,320.8z"/>
	<path class="st4" d="M361.2,320c0,16.9-10.3,25.9-22.9,25.9c-13,0-22.1-10.1-22.1-25c0-15.6,9.7-25.9,22.9-25.9
		C352.5,295.1,361.2,305.4,361.2,320z M323,320.8c0,10.5,5.7,19.9,15.7,19.9c10.1,0,15.8-9.3,15.8-20.4c0-9.8-5.1-20-15.7-20
		C328.2,300.3,323,310,323,320.8z"/>
	<path class="st4" d="M369.4,295.9h6.4v43.9h21v5.3h-27.4V295.9z"/>
</g>
</svg>
